<?xml version="1.0" encoding="utf-8"?>
<!-- Generator: Adobe Illustrator 19.2.1, SVG Export Plug-In . SVG Version: 6.00 Build 0)  -->
<svg version="1.1" id="layer" xmlns="http://www.w3.org/2000/svg" xmlns:xlink="http://www.w3.org/1999/xlink" x="0px" y="0px"
	 viewBox="0 0 652 652" style="enable-background:new 0 0 652 652;" xml:space="preserve">
<style type="text/css">
	.st0{fill-rule:evenodd;clip-rule:evenodd;fill:#D52B1E;}
</style>
<g>
	<path class="st0" d="M436.1,333.7c-10.9-3.2-20.4,9.8-23.2,21.2c-2.5,10.5-1.2,24.6,8.3,26.4c7.6,1.4,16.4-5.2,18.7-17.5
		c0.6-3.3,2-13.8,2.4-16.5c2.6-16.7,4.6-24,4.6-24c9.1-34.8,30.9-102.6,36.8-106.6c6.2-4.1,23.1-4.8,17.8,9.3
		c-8.2,22-17.9,41.5-26.5,68.6c-10.2,31.8-29.9,82.8-12.3,85.1c8.2,1.1,11.5-6.5,16.5-2.7c7.5,5.9-0.7,16.6-15.2,18
		c-20,0.7-19.6-11-28.5-5.9c-28.4,16.1-45.9-6.4-40.3-34.7c4.8-24.2,23.5-41.4,44.3-30.9c0,0,5.4,2.7,4.9,7.2
		C444,334.2,441.4,334.9,436.1,333.7 M186.3,324.5c1.5-5.5,4.8-6.8,9-7.8c6.4-2.1,15.3-4.9,20.8-5.9c13.8-3.4,17.8-2.6,19.6-12.2
		c1.2-6.7-1.6-9.9-1.6-9.9s-30.2,9.5-36.3,11.1c-5.3,2.3-4.3-3.3-4.3-3.3s-0.8,3.5,2.5-10.8c9.9-43.5,4.1-55.1-3.8-61.8
		c-19.9-16.5-92.6,17.7-144.6,58.7c-17.3,15.1-27.4,18.6-16.1,30.6c10,10,16.6,2.5,16.6,2.5c9.5-7.5,30.1-28.6,43.7-38.7
		c19.3-14.3,45.9-34.9,69.5-40.4c18.7-4.7,24.4,0.8,21.8,19.8c-1.5,16.4-14.1,53.2-14.1,53.2s-19.3,8.6-25.1,10.8
		c-4.5,1.7-9.3,0.5-9.8,10.8c-0.2,11,6.5,6.9,10.9,5.2c3.5-1.3,11.6-5.2,14.7-6.4c2.3-1.8,4.8-0.3,3.5,3
		c-2.3,7.3-6.3,19.1-14.1,36.1c-9.8,23.4-27.4,55.2-29.6,63.3c0.3,5.3,6,6,13.6,6.1c7-0.5,10.2-5.4,10.2-5.4s9.1-19.5,23.1-54
		C176.8,354.5,183.5,333.8,186.3,324.5 M240,358.5c-4.3,4.4-9.4,10.5-10,15.4c-1.5,10.7,4,20.1,17.6,19.8
		c14.6-0.2,19.3-10.8,43.7-25.6c6.8-4.1,15.2-11.1,18.7-11.7c1.3,0,3.3,0.4,3.2,3c-2.1,9.7-4.3,16.2-1.8,24.5
		c1.8,5.8,9.5,9.5,15.1,5.3c9.3-7,9.4-11,21.5-26.9c2-2.6,9.3-14.6,12.7-13.1c2.8,1.3,2,5.2,1.5,8.3c-2.5,14.8-9,38.3,20.3,34.7
		c7-0.9,12.6-5.6,7.3-10.6c-3.2-3-6.8-0.8-10.8-1.8c-9.4-2.2,13.9-45,2.8-53c-15.6-11.2-30.1,8.6-40.9,23.1
		c-4.3,5.7-7.4,3.2-10.2-4.8c-3.1-8.9-21.6-2.4-32.3,3.1c-17,8.8-48.4,38.1-51.3,23.5c-0.5-2.5,3.6-8.2,11.2-10.9
		c9-3.3,19.1-6.2,19.1-11.5c0-4.2-2.5-7.1-5.2-6.9c-12.5,0.7-27,4-43.7-0.6c-3.8,0-5.4-9.6,5.8-8.3c3,0.3,9.6,0.8,34.8,1.3
		c17.7,0.4,18.1-12.9,15.7-20c-14.7,4.4-22.2,3.9-37.8,3.9c-16.4,0-38.4,2.3-37.5,18c0.8,13.3,19.4,16.9,29.1,18
		C241.1,354.5,242,357.2,240,358.5 M501.6,332.6c3.1-0.1,10.8,0.9,27.4,1.5c17.3,0.6,20.8-12.8,20.1-21.1
		c-17.7,3.8-21.9,4.8-37.2,4.8c-16,0-35.8,4.5-36.1,18.6c-0.4,14,18,17.1,27.5,19.8c2.6,0.6,3.6,2.8,1.9,4.1
		c-4.1,3.3-13.2,7.5-14.3,15.2c-1.6,10.8,8.3,19.3,20.8,19.1c16.7-0.4,35.1-7.4,52.8-28.6c5-6,10.6-16.1,14.1-20.6
		c0.8-1.6,3.2-2.4,4.3-2.3c3.2,0.7,7.6,3.1,7,6.5c-0.9,5.3-15.2,21.6-5.7,31.5c5.8,6.1,20.6,10.4,32.3,1.9c11-8,7.1-15.3,2.8-15.8
		c-3.1-0.4-11.8,10.5-18.8,2.8c-5.8-6.5,8-19.8,10.8-24.6c4-6.9-11.5-12-18.1-20.6c-4.2-5.6,6.7-22.9-7-27.4
		c-4.5-1.5-18.3,6.8-13.4,30.7c-6.3,23.6-54.1,64.9-60.5,48.2c-1.6-4.1,2.6-10.8,13.5-13.1c18.1-3.8,16.6-14.9,8-16.1
		c-13.6-1.8-17.3-1.8-33.5-5.5C493.9,340.9,494.1,332.4,501.6,332.6"/>
	<path class="st0" d="M610.7,317.2c-1.7,1.7-2.5,3.7-2.5,6.1c0,2.4,0.8,4.5,2.5,6.1c1.7,1.7,3.7,2.5,6.1,2.5c2.4,0,4.4-0.8,6.1-2.5
		c1.7-1.7,2.5-3.7,2.5-6.1c0-2.4-0.8-4.4-2.5-6.1c-1.7-1.7-3.7-2.5-6.1-2.5C614.4,314.6,612.4,315.5,610.7,317.2 M623.9,330.4
		c-2,2-4.3,2.9-7.1,2.9c-2.8,0-5.1-1-7.1-2.9c-1.9-2-2.9-4.3-2.9-7.1c0-2.8,1-5.1,2.9-7.1c1.9-1.9,4.3-2.9,7.1-2.9
		c2.8,0,5.1,1,7.1,2.9c2,1.9,2.9,4.3,2.9,7.1C626.8,326,625.9,328.4,623.9,330.4 M618.7,319.5c-0.5-0.3-1.3-0.4-2.3-0.4h-1.6v4h1.7
		c0.8,0,1.4-0.1,1.8-0.2c0.8-0.3,1.1-0.9,1.1-1.7C619.4,320.3,619.2,319.7,618.7,319.5 M616.6,317.7c1.4,0,2.4,0.1,3,0.4
		c1.1,0.5,1.7,1.4,1.7,2.8c0,1-0.4,1.7-1.1,2.2c-0.4,0.2-0.9,0.4-1.6,0.5c0.9,0.1,1.5,0.5,1.9,1.1c0.4,0.6,0.6,1.2,0.6,1.7v0.8
		c0,0.3,0,0.5,0,0.8c0,0.3,0.1,0.5,0.1,0.6l0.1,0.1h-1.8c0,0,0-0.1,0-0.1c0,0,0-0.1,0-0.1l0-0.4v-0.9c0-1.3-0.4-2.1-1-2.5
		c-0.4-0.2-1.1-0.4-2.2-0.4h-1.5v4.3h-1.9v-11H616.6z"/>
</g>
</svg>
