<?xml version="1.0" encoding="UTF-8" standalone="no"?>
<!-- Created with Inkscape (http://www.inkscape.org/) -->

<svg
   xmlns:dc="http://purl.org/dc/elements/1.1/"
   xmlns:cc="http://creativecommons.org/ns#"
   xmlns:rdf="http://www.w3.org/1999/02/22-rdf-syntax-ns#"
   xmlns:svg="http://www.w3.org/2000/svg"
   xmlns="http://www.w3.org/2000/svg"
   xmlns:sodipodi="http://sodipodi.sourceforge.net/DTD/sodipodi-0.dtd"
   xmlns:inkscape="http://www.inkscape.org/namespaces/inkscape"
   width="94.420456mm"
   height="14.950161mm"
   viewBox="0 0 334.56067 52.973011"
   id="svg2"
   version="1.1"
   inkscape:version="0.91 r13725"
   sodipodi:docname="Hartke logo.svg">
  <title
     id="title4149">Hartke logo</title>
  <defs
     id="defs4" />
  <sodipodi:namedview
     id="base"
     pagecolor="#ffffff"
     bordercolor="#666666"
     borderopacity="1.0"
     inkscape:pageopacity="0.0"
     inkscape:pageshadow="2"
     inkscape:zoom="1.4"
     inkscape:cx="147.17065"
     inkscape:cy="7.2048849"
     inkscape:document-units="px"
     inkscape:current-layer="layer1"
     showgrid="false"
     fit-margin-top="0"
     fit-margin-left="0"
     fit-margin-right="0"
     fit-margin-bottom="0"
     inkscape:window-width="1366"
     inkscape:window-height="705"
     inkscape:window-x="-8"
     inkscape:window-y="-8"
     inkscape:window-maximized="1" />
  <metadata
     id="metadata7">
    <rdf:RDF>
      <cc:Work
         rdf:about="">
        <dc:format>image/svg+xml</dc:format>
        <dc:type
           rdf:resource="http://purl.org/dc/dcmitype/StillImage" />
        <dc:title>Hartke logo</dc:title>
        <cc:license
           rdf:resource="http://creativecommons.org/licenses/by-sa/3.0/" />
        <dc:date>14/11/2016</dc:date>
        <dc:publisher>
          <cc:Agent>
            <dc:title>CMetalCore</dc:title>
          </cc:Agent>
        </dc:publisher>
      </cc:Work>
      <cc:License
         rdf:about="http://creativecommons.org/licenses/by-sa/3.0/">
        <cc:permits
           rdf:resource="http://creativecommons.org/ns#Reproduction" />
        <cc:permits
           rdf:resource="http://creativecommons.org/ns#Distribution" />
        <cc:requires
           rdf:resource="http://creativecommons.org/ns#Notice" />
        <cc:requires
           rdf:resource="http://creativecommons.org/ns#Attribution" />
        <cc:permits
           rdf:resource="http://creativecommons.org/ns#DerivativeWorks" />
        <cc:requires
           rdf:resource="http://creativecommons.org/ns#ShareAlike" />
      </cc:License>
    </rdf:RDF>
  </metadata>
  <g
     inkscape:label="Capa 1"
     inkscape:groupmode="layer"
     id="layer1"
     transform="translate(-100.61009,-216.63931)">
    <path
       style="fill:#000000"
       d="m 185.88941,269.58477 c -8.53958,-0.40095 -14.08535,-3.21848 -17.2598,-8.7688 -1.29817,-2.26977 -2.21696,-5.33308 -2.5989,-8.66495 -0.37606,-3.28052 -0.32063,-7.16616 0.14614,-10.24377 0.71659,-4.72479 2.34451,-8.28385 4.99798,-10.9268 1.30862,-1.30344 2.42633,-2.09716 4.12936,-2.93238 2.60054,-1.27538 5.3269,-1.93684 9.042,-2.19374 1.25481,-0.0868 4.78021,-0.0374 5.86837,0.0822 3.98613,0.43805 6.74766,1.41434 9.24784,3.26942 0.83575,0.62011 2.15277,1.93824 2.81882,2.82119 l 0.5104,0.67663 0.0147,-3.13798 0.0147,-3.13798 11.40993,0 11.40993,0 0,20.85744 0,20.85744 -11.40981,0 -11.40981,0 -0.0148,-2.46135 -0.0148,-2.46134 -0.20891,0.36991 c -0.75834,1.34271 -2.0367,2.61605 -3.5349,3.52101 -2.74338,1.65708 -6.83669,2.53981 -11.59338,2.50012 -0.67296,-0.006 -1.37721,-0.0175 -1.56502,-0.0263 z m 12.11358,-12.25115 c 1.79332,-0.31299 3.09989,-1.05147 4.03431,-2.2802 0.36239,-0.47653 0.85193,-1.48135 1.03973,-2.13412 0.33215,-1.15449 0.39631,-1.73033 0.39627,-3.55686 -4e-5,-1.80352 -0.0519,-2.33411 -0.33878,-3.46584 -0.70764,-2.7916 -2.37436,-4.36144 -5.18023,-4.87911 -0.457,-0.0843 -0.84373,-0.10451 -1.96339,-0.10252 -1.27599,0.002 -1.45223,0.0149 -2.0772,0.14851 -0.81157,0.17355 -1.55398,0.44396 -2.1692,0.7901 -0.61871,0.3481 -1.60308,1.3306 -1.94855,1.94483 -0.52716,0.9373 -0.81523,1.77447 -1.03383,3.00452 -0.157,0.88343 -0.22124,3.16323 -0.11714,4.15743 0.16348,1.56131 0.61556,2.95433 1.27181,3.91891 0.25895,0.38061 0.93037,1.06129 1.32215,1.34036 0.89945,0.64073 2.13914,1.06631 3.55686,1.22105 0.77088,0.0841 2.42879,0.0288 3.20719,-0.10706 z m 92.91345,12.25492 c -2.86919,-0.13415 -4.73068,-0.36454 -6.40235,-0.79245 -2.95663,-0.75682 -4.87446,-2.1123 -5.91668,-4.18182 -0.42327,-0.84047 -0.67231,-1.63717 -0.89838,-2.87395 -0.12462,-0.68176 -0.12486,-0.69838 -0.14227,-9.77426 l -0.0174,-9.09134 -3.58365,0 -3.58365,0 0.002,-3.941 0.002,-3.94101 1.12194,-0.91894 c 5.65058,-4.62821 11.58189,-10.11012 15.40265,-14.23568 l 0.90695,-0.9793 6.76165,0 6.76165,0 0,4.18287 0,4.18287 8.1381,0 8.1381,0 0,7.82509 0,7.8251 -7.88201,0 -7.88201,0 0,5.36887 c 0,5.12206 0.005,5.38866 0.1101,5.79934 0.34496,1.34878 1.20043,2.07168 2.88154,2.435 0.46633,0.10078 0.82608,0.12749 2.05601,0.15267 2.41558,0.0494 5.2838,-0.1937 7.60678,-0.64485 0.4025,-0.0782 0.73762,-0.13426 0.74472,-0.12463 0.0107,0.0144 -2.93027,12.05683 -2.95359,12.09424 -0.0192,0.0308 -2.48562,0.43443 -3.7302,0.61042 -3.19573,0.4519 -6.55505,0.76046 -10.27222,0.94349 -1.1978,0.059 -6.56825,0.11674 -7.36982,0.0793 z m 107.78715,-0.0248 c -2.40593,-0.10187 -4.62907,-0.30563 -6.54462,-0.59981 -9.99704,-1.53539 -15.6629,-5.9823 -17.63541,-13.84134 -0.69439,-2.76664 -0.94651,-6.25796 -0.68514,-9.48774 0.37545,-4.6394 1.86594,-8.63779 4.41261,-11.83723 0.63967,-0.80364 2.14882,-2.31284 2.95281,-2.9529 3.42511,-2.72676 7.91256,-4.53372 13.28843,-5.35085 3.21235,-0.48827 6.51056,-0.63663 10.86977,-0.48897 9.48379,0.32125 15.48081,1.81613 19.56289,4.87643 3.37301,2.52872 5.40681,6.43579 6.15632,11.82675 0.32336,2.32583 0.35396,2.87355 0.38543,6.90031 l 0.0286,3.65646 -16.43096,0 -16.43098,0 0.0379,0.44105 c 0.0208,0.24257 0.0752,0.64879 0.12086,0.9027 0.38805,2.15891 1.80118,3.44345 4.46431,4.05806 2.08109,0.48029 5.93357,0.58521 9.44702,0.25729 3.76688,-0.35157 8.15692,-1.10839 16.50127,-2.84472 1.10974,-0.23092 2.02422,-0.41335 2.03217,-0.40539 0.027,0.027 -4.77183,11.39126 -4.83787,11.45657 -0.0753,0.0744 -1.58336,0.44494 -3.65099,0.89701 -5.73759,1.2545 -11.4338,2.0917 -16.70302,2.45496 -1.52482,0.10511 -5.68998,0.15128 -7.34137,0.0814 z m 13.29694,-28.15444 c -0.1566,-3.02741 -1.48827,-4.82262 -4.06651,-5.48202 -0.85761,-0.21934 -1.71128,-0.29359 -3.02726,-0.26332 -0.72611,0.0167 -1.43247,0.0646 -1.73743,0.11772 -2.82245,0.49195 -4.52917,1.95851 -5.17588,4.44752 -0.11675,0.44943 -0.16704,0.74465 -0.28826,1.69229 l -0.0273,0.21341 7.1801,0 7.1801,0 -0.0375,-0.7256 z m -311.39044,2.09144 0,-24.64194 12.46324,0 12.46325,0 0,8.93484 0,8.93483 6.45926,0 6.45926,0 0,-8.93483 0,-8.93484 12.46325,0 12.46324,0 0,24.64194 0,24.64194 -12.46324,0 -12.46325,0 0,-7.54055 0,-7.54055 -6.45926,0 -6.45926,0 0,7.54055 0,7.54055 -12.46325,0 -12.46324,0 0,-24.64194 z m 127.8194,3.7845 0,-20.85744 10.64213,0 10.64213,0 0,5.91862 c 0,3.48582 0.0211,5.91862 0.0514,5.91862 0.0283,0 0.14557,-0.40335 0.26066,-0.89633 0.83869,-3.59273 1.63846,-5.80021 2.68083,-7.3994 1.55279,-2.3823 3.62542,-3.58717 6.99477,-4.06624 0.69109,-0.0983 4.93492,-0.0969 6.06089,0.002 0.93722,0.0823 2.27105,0.22636 2.54672,0.27514 l 0.18495,0.0327 0,11.48944 0,11.48945 -3.59954,7.6e-4 c -5.56412,0.001 -7.12577,0.12235 -8.90866,0.69102 -2.03029,0.64759 -3.267,1.84027 -3.79403,3.65894 -0.35362,1.22027 -0.33797,0.86871 -0.35805,8.04136 l -0.0184,6.55886 -11.69293,0 -11.69293,0 0,-20.85745 z m 91.56786,-4.89424 0,-25.75169 11.69496,0 11.69497,0 0,13.48763 c 0,11.27116 0.0126,13.48762 0.0767,13.48762 0.0447,0 1.89201,-3.57776 4.42971,-8.57915 l 4.35303,-8.57916 14.03772,-0.0143 14.03773,-0.0143 -8.02101,10.69437 c -4.41156,5.8819 -8.05179,10.74365 -8.08941,10.80389 -0.0605,0.0969 0.69296,1.26854 6.51269,10.12793 3.61961,5.51011 6.5811,10.03433 6.5811,10.05379 0,0.0195 -5.63968,0.0289 -12.53264,0.021 l -12.53264,-0.0144 -4.35534,-7.21261 c -2.39543,-3.96693 -4.38735,-7.21292 -4.42648,-7.21331 -0.0565,-5.7e-4 -0.0711,1.48235 -0.0711,7.22683 l 0,7.22755 -11.69497,0 -11.69496,0 0,-25.75169 z m 112.14236,-9.64806 c -0.85837,-0.14936 -1.54576,-0.64784 -1.90797,-1.38358 -0.62935,-1.27838 -0.0815,-2.79031 1.23553,-3.40999 0.34193,-0.16088 0.45488,-0.18416 0.98383,-0.20281 0.50064,-0.0176 0.65707,-9.5e-4 0.9644,0.10273 0.93884,0.31683 1.55731,1.03195 1.72173,1.99078 0.11624,0.67786 -0.0729,1.40552 -0.51741,1.99024 -0.49978,0.65749 -1.60631,1.06467 -2.48011,0.91263 z m 1.18435,-0.95571 c 0.39807,-0.17608 0.38297,-0.23745 -0.0586,-0.23825 l -0.3875,-7.6e-4 -0.25483,-0.48303 c -0.14015,-0.26567 -0.2746,-0.48303 -0.29877,-0.48303 -0.0242,0 -0.044,0.21768 -0.044,0.48374 l 0,0.48373 -0.36991,0 -0.36991,0 0,-1.31404 0,-1.31403 0.86787,0.0201 c 0.70136,0.0162 0.90422,0.0398 1.05731,0.12271 0.25275,0.13689 0.37082,0.42676 0.33751,0.82853 -0.0215,0.2595 -0.0551,0.33628 -0.20609,0.47118 -0.0992,0.0886 -0.23333,0.16117 -0.29803,0.16117 -0.0647,0 -0.10914,0.0196 -0.0987,0.0437 0.0104,0.024 0.13373,0.25638 0.27402,0.51635 l 0.25503,0.47268 0.10894,-0.13221 c 0.25318,-0.30727 0.39792,-0.73962 0.39659,-1.1846 -0.002,-0.55731 -0.16163,-0.93721 -0.5366,-1.27434 -0.32412,-0.29142 -0.66843,-0.40705 -1.19039,-0.39979 -0.70702,0.01 -1.29987,0.42078 -1.50708,1.0446 -0.13511,0.40676 -0.0995,1.12916 0.0721,1.46158 0.17062,0.33054 0.57946,0.67149 0.9366,0.78109 0.37675,0.11561 0.9698,0.0853 1.31439,-0.0671 z m -0.34151,-1.9543 c 0.10484,-0.16708 -0.0507,-0.27509 -0.39613,-0.27509 l -0.30605,0 0,0.20202 0,0.20203 0.32134,-0.0171 c 0.22451,-0.0119 0.33927,-0.0456 0.38084,-0.11189 z"
       id="path4147"
       inkscape:connector-curvature="0" />
  </g>
</svg>
